<?xml version="1.0" encoding="UTF-8"?>
<!-- Created with Inkscape (http://www.inkscape.org/) -->
<svg width="1307.8mm" height="309.51mm" version="1.1" viewBox="0 0 1307.8 309.51" xmlns="http://www.w3.org/2000/svg">
 <g transform="translate(558.01 49.212)">
  <g transform="matrix(.26458 0 0 .26458 -328.91 -304.54)" fill="#0e232e">
   <g fill="#0e232e">
    <path d="m3482.7 965.02-35.106 5.7402-604.88 1128.7 223.22-0.8321 150.34-260.34 505.39 4.2343 153.48 259.91 201.92-6.7637zm-13.756 402.97 138.31 261.52-283.16 1.5937z"/>
    <path d="m-865.86 1001.2 1.1101 1092.3 196.89 11.13 14.059-705.69 707.85 722.29 63.732 13.584 7.1021-1129.6-208.11-1.1454-0.61988 661.47-642.27-652.09z"/>
    <a transform="matrix(1,0,0,1.1493,-245.52,1937.2)">
     <path d="m523.14-815.2 177.31 186.48 723.05 4.6775 170.6-186.48z" fill="#0e232e"/>
    </a>
    <path d="m535.22 1877.1-200.13 213.21 861.49 9.5361 213.94-221.43z"/>
    <path d="m690.94 1427.8c-2.7699-0.2492 2.7799 0.01 0 0-56.749-5e-4 -111.23 53.632-111.23 113.93 1e-4 60.299 47.86 119.82 104.61 119.82 0 0-0.7201 0.063 0 0l273.81 0.9707 196.96-225.06z"/>
    <ellipse cx="1545.1" cy="1552.5" rx="89.118" ry="85.904"/>
    <ellipse cx="2717.7" cy="1556" rx="89.118" ry="85.904"/>
    <path d="m1506.5 2100 271.49 2.1583 362.78-377.08 359.53 377.91 263.86 5.3872-478.74-541.53 523.74-568.12-292.58 13.853-365.05 376.69-367.15-391.06-291.93 5.6059 517.92 551.8z"/>
   </g>
  </g>
 </g>
</svg>
